<?xml version="1.0" standalone="no"?>
<!DOCTYPE svg PUBLIC "-//W3C//DTD SVG 20010904//EN"
 "http://www.w3.org/TR/2001/REC-SVG-20010904/DTD/svg10.dtd">
<svg version="1.0" xmlns="http://www.w3.org/2000/svg"
 width="400.000000pt" height="400.000000pt" viewBox="0 0 400.000000 400.000000"
 preserveAspectRatio="xMidYMid meet">

<g transform="translate(0.000000,400.000000) scale(0.100000,-0.100000)"
fill="#000000" stroke="none">
<path d="M801 2328 c1 -68 2 -70 10 -33 10 41 22 55 52 55 16 0 17 -24 17
-369 0 -315 -2 -370 -15 -381 -26 -22 -16 -30 35 -30 53 0 60 5 33 25 -15 11
-18 42 -21 269 -4 255 -4 256 17 256 20 0 21 -4 21 -155 l0 -155 40 0 40 0 0
155 c0 131 2 155 15 155 13 0 15 -31 15 -217 -1 -219 -9 -304 -29 -311 -28 -9
-6 -22 39 -22 53 0 58 4 35 34 -12 16 -15 56 -15 188 0 105 4 168 10 168 6 0
10 -32 10 -75 0 -68 2 -75 20 -75 11 0 20 -2 20 -4 0 -8 41 -202 46 -218 4
-15 17 -18 75 -18 70 0 82 7 53 31 -14 11 -15 27 -10 97 9 106 12 112 48 112
18 0 36 7 44 17 7 10 15 15 18 12 3 -3 11 -52 18 -108 9 -79 9 -107 0 -122
-20 -32 -14 -39 33 -39 45 0 54 7 34 27 -10 10 -38 147 -39 191 0 19 5 22 38
22 l37 0 17 -80 c19 -93 49 -147 86 -157 33 -8 66 28 87 99 21 73 18 94 -4 28
-18 -49 -42 -80 -63 -80 -31 0 -78 105 -78 176 0 33 0 33 28 18 33 -17 68 -18
111 -3 39 14 51 35 51 93 l0 46 -40 0 -40 0 0 -40 c0 -43 -24 -66 -41 -39 -11
18 -11 230 0 248 16 25 41 4 41 -34 0 -34 1 -35 40 -35 l40 0 0 43 c0 23 -7
51 -15 61 -11 15 -15 50 -16 135 0 64 -3 109 -6 101 -2 -8 -7 -21 -9 -29 -4
-11 -11 -8 -30 12 -43 47 -75 32 -113 -53 -24 -55 -40 -137 -49 -250 l-8 -85
-13 98 -14 97 -43 0 c-35 0 -44 4 -45 18 0 9 -6 58 -13 107 -16 111 -18 104
-51 -165 -27 -213 -33 -247 -34 -193 -1 20 -9 37 -22 47 l-21 14 21 21 c25 25
28 86 6 118 -9 13 -31 24 -55 28 -37 6 -40 9 -40 40 0 61 -22 138 -46 162 -19
19 -34 23 -84 23 -53 0 -80 -12 -49 -22 14 -5 28 -77 29 -145 l0 -53 -75 0
-76 0 3 83 c3 74 5 82 24 85 28 4 44 -18 54 -75 7 -44 8 -40 9 40 l1 87 -100
0 -100 0 1 -72z m898 7 c18 -24 41 -103 41 -145 0 -16 -4 -17 -34 -9 -25 7
-46 6 -75 -5 -40 -13 -41 -13 -41 8 0 35 25 122 44 150 21 33 39 33 65 1z
m-550 -12 c7 -16 16 -54 18 -85 l6 -58 -32 0 -31 0 0 -90 c0 -53 -4 -90 -10
-90 -6 0 -10 65 -10 175 l0 175 23 0 c16 0 28 -9 36 -27z m226 -253 c-10 -61
-20 -109 -22 -106 -5 5 15 178 24 209 2 10 7 16 10 13 3 -3 -2 -55 -12 -116z
m-139 26 c7 -29 -11 -66 -31 -66 -14 0 -13 32 1 78 6 20 23 14 30 -12z m217
-61 c4 -50 3 -73 -3 -60 -8 19 -14 153 -6 144 2 -2 6 -40 9 -84z m-223 -81 c6
-14 10 -52 10 -85 l0 -59 35 0 c19 0 35 -4 35 -9 0 -27 -23 -167 -30 -187 -31
-82 -90 91 -90 265 0 84 3 101 15 101 9 0 20 -12 25 -26z m117 -46 c-3 -7 -5
-2 -5 12 0 14 2 19 5 13 2 -7 2 -19 0 -25z"/>
<path d="M1780 2394 c0 -3 7 -12 15 -20 18 -18 17 8 19 -379 1 -318 -3 -396
-23 -403 -28 -9 -6 -22 39 -22 53 0 58 4 35 34 -11 14 -15 47 -15 113 0 85 2
93 19 93 11 0 21 5 23 11 2 6 17 -34 33 -90 24 -84 26 -105 17 -126 -7 -14
-12 -28 -12 -30 0 -3 25 -5 55 -5 42 0 55 3 55 15 0 8 -4 15 -9 15 -10 0 -45
78 -61 138 -6 24 -14 50 -17 58 -4 11 4 14 37 14 37 0 41 2 35 20 -3 11 -17
57 -29 103 l-23 84 28 78 c16 44 29 81 29 83 0 2 -19 2 -42 0 l-42 -3 -25 -80
c-40 -126 -36 -63 4 75 30 104 52 163 83 223 2 4 -17 7 -42 7 -43 0 -59 -11
-36 -25 17 -11 10 -87 -15 -160 -12 -38 -23 -62 -24 -52 -1 10 -9 17 -21 17
-18 0 -20 7 -20 83 0 58 5 89 15 103 23 30 18 34 -35 34 -27 0 -50 -3 -50 -6z"/>
<path d="M2141 2328 c1 -68 2 -70 10 -33 10 41 22 55 52 55 15 0 17 -11 17
-85 l0 -85 -35 0 c-32 0 -35 -2 -35 -30 0 -26 4 -30 28 -30 l29 0 7 -251 c6
-219 5 -254 -9 -269 -23 -26 -19 -30 35 -30 52 0 60 5 35 24 -10 8 -16 42 -21
114 -7 100 -6 102 15 102 21 0 21 3 21 155 l0 155 30 0 c27 0 30 3 30 30 0 29
-1 30 -50 30 l-51 0 3 83 c3 74 5 82 24 85 28 4 44 -18 54 -75 7 -44 8 -40 9
40 l1 87 -100 0 -100 0 1 -72z"/>
<path d="M2360 2391 c0 -5 7 -14 15 -21 11 -9 15 -35 15 -101 0 -53 -4 -89
-10 -89 -6 0 -10 -68 -10 -185 0 -117 4 -185 10 -185 6 0 10 -40 10 -99 0 -75
-4 -101 -15 -111 -26 -22 -16 -30 35 -30 54 0 58 3 35 26 -11 12 -15 40 -15
115 0 56 4 99 10 99 5 0 10 30 12 68 3 67 3 67 43 -120 l40 -188 72 0 c74 0
86 7 57 31 -14 11 -15 26 -10 86 12 142 15 153 47 153 19 0 29 -5 29 -15 0 -8
9 -15 19 -15 25 0 29 -12 37 -113 4 -58 3 -86 -5 -91 -6 -4 -11 -14 -11 -22 0
-10 12 -14 45 -14 42 0 58 11 36 24 -14 9 -32 101 -37 192 -2 45 -16 160 -30
255 -14 96 -31 215 -38 264 -14 99 -18 94 -36 -38 -5 -43 -10 -80 -10 -83 0
-2 -11 -4 -25 -4 -14 0 -25 -3 -25 -7 0 -24 -52 -311 -60 -328 -6 -14 -9 3 -9
57 -1 66 -4 79 -22 92 l-21 14 21 21 c25 25 28 86 7 116 -7 11 -17 51 -21 90
-8 82 -30 142 -56 155 -22 12 -129 13 -129 1z m127 -71 c6 -14 14 -51 18 -82
l7 -58 -41 0 -41 0 0 86 c0 83 1 85 22 82 13 -2 28 -14 35 -28z m-9 -199 c20
-12 12 -85 -10 -89 -15 -3 -18 4 -18 47 0 51 4 58 28 42z m235 -98 c4 -52 2
-63 -10 -63 -12 0 -14 8 -9 38 3 20 6 50 6 66 0 48 7 26 13 -41z m0 -130 c-7
-2 -19 -2 -25 0 -7 3 -2 5 12 5 14 0 19 -2 13 -5z m-69 -145 c-10 -86 -27
-151 -41 -155 -20 -7 -42 40 -62 130 l-19 87 64 0 65 0 -7 -62z"/>
<path d="M2880 2393 c0 -5 7 -17 15 -27 10 -14 15 -45 15 -103 l0 -83 -40 0
-40 0 0 -185 0 -185 40 0 40 0 0 -93 c0 -66 -4 -99 -15 -113 -23 -30 -18 -34
35 -34 53 0 60 5 33 25 -14 10 -18 33 -21 114 l-4 101 46 0 46 0 0 -93 c0 -66
-4 -99 -15 -113 -8 -10 -15 -22 -15 -26 0 -5 43 -8 95 -8 l95 0 0 34 c0 18 2
62 5 97 l5 64 -13 -59 c-8 -33 -22 -65 -32 -73 -21 -15 -71 -18 -79 -4 -3 5
-9 47 -12 95 l-7 86 27 0 c22 0 26 4 26 30 0 26 -4 30 -26 30 l-26 0 4 241 c4
234 5 242 26 259 12 10 22 21 22 24 0 3 -25 6 -55 6 -56 0 -67 -8 -40 -30 13
-11 15 -50 13 -259 -2 -187 -3 -208 -5 -88 l-4 157 -40 0 -41 0 4 91 c3 71 8
94 21 104 27 20 20 25 -33 25 -27 0 -50 -3 -50 -7z"/>
</g>
</svg>
